<mxfile host="app.diagrams.net" modified="2023-12-13T14:32:16.464Z" agent="Mozilla/5.0 (Windows NT 10.0; Win64; x64) AppleWebKit/537.36 (KHTML, like Gecko) Chrome/119.0.0.0 Safari/537.36" etag="f0gfM_cTKXxAdLdjG5qT" version="22.1.8" type="github">
  <diagram name="第 1 页" id="n4EPoAl4d1TwxHDF5cub">
    <mxGraphModel dx="1185" dy="639" grid="1" gridSize="10" guides="1" tooltips="1" connect="1" arrows="1" fold="1" page="1" pageScale="1" pageWidth="827" pageHeight="1169" math="0" shadow="0">
      <root>
        <mxCell id="0" />
        <mxCell id="1" parent="0" />
        <mxCell id="IsoqKuqiPtyr5cZhoryX-20" value="" style="rounded=1;whiteSpace=wrap;html=1;fillColor=#e1d5e7;strokeColor=#9673a6;" vertex="1" parent="1">
          <mxGeometry x="15" y="215" width="645" height="60" as="geometry" />
        </mxCell>
        <mxCell id="HhCP0gk5ZvKczgAGPvd4-48" value="" style="rounded=1;whiteSpace=wrap;html=1;fillColor=#d5e8d4;strokeColor=#82b366;" parent="1" vertex="1">
          <mxGeometry x="345" y="300" width="310" height="70" as="geometry" />
        </mxCell>
        <mxCell id="HhCP0gk5ZvKczgAGPvd4-47" value="" style="rounded=1;whiteSpace=wrap;html=1;fillColor=#f8cecc;strokeColor=#b85450;" parent="1" vertex="1">
          <mxGeometry x="20" y="300" width="310" height="70" as="geometry" />
        </mxCell>
        <mxCell id="HhCP0gk5ZvKczgAGPvd4-34" value="" style="rounded=1;whiteSpace=wrap;html=1;fillColor=#fff2cc;strokeColor=#d6b656;" parent="1" vertex="1">
          <mxGeometry x="340" y="390" width="320" height="60" as="geometry" />
        </mxCell>
        <mxCell id="IsoqKuqiPtyr5cZhoryX-5" value="" style="edgeStyle=orthogonalEdgeStyle;rounded=0;orthogonalLoop=1;jettySize=auto;html=1;" edge="1" parent="1" source="HhCP0gk5ZvKczgAGPvd4-5" target="HhCP0gk5ZvKczgAGPvd4-7">
          <mxGeometry relative="1" as="geometry" />
        </mxCell>
        <mxCell id="HhCP0gk5ZvKczgAGPvd4-5" value="Get2D()" style="whiteSpace=wrap;html=1;" parent="1" vertex="1">
          <mxGeometry x="360" y="320" width="80" height="30" as="geometry" />
        </mxCell>
        <mxCell id="IsoqKuqiPtyr5cZhoryX-6" value="" style="edgeStyle=orthogonalEdgeStyle;rounded=0;orthogonalLoop=1;jettySize=auto;html=1;" edge="1" parent="1" source="HhCP0gk5ZvKczgAGPvd4-7" target="HhCP0gk5ZvKczgAGPvd4-8">
          <mxGeometry relative="1" as="geometry" />
        </mxCell>
        <mxCell id="HhCP0gk5ZvKczgAGPvd4-7" value="Get2D()" style="whiteSpace=wrap;html=1;" parent="1" vertex="1">
          <mxGeometry x="460" y="320" width="80" height="30" as="geometry" />
        </mxCell>
        <mxCell id="IsoqKuqiPtyr5cZhoryX-7" value="" style="edgeStyle=orthogonalEdgeStyle;rounded=0;orthogonalLoop=1;jettySize=auto;html=1;" edge="1" parent="1" source="HhCP0gk5ZvKczgAGPvd4-8" target="HhCP0gk5ZvKczgAGPvd4-9">
          <mxGeometry relative="1" as="geometry" />
        </mxCell>
        <mxCell id="HhCP0gk5ZvKczgAGPvd4-8" value="Get2D()" style="whiteSpace=wrap;html=1;" parent="1" vertex="1">
          <mxGeometry x="560" y="320" width="80" height="30" as="geometry" />
        </mxCell>
        <mxCell id="HhCP0gk5ZvKczgAGPvd4-9" value="..." style="whiteSpace=wrap;html=1;" parent="1" vertex="1">
          <mxGeometry x="680" y="320" width="80" height="30" as="geometry" />
        </mxCell>
        <mxCell id="IsoqKuqiPtyr5cZhoryX-4" value="" style="edgeStyle=orthogonalEdgeStyle;rounded=0;orthogonalLoop=1;jettySize=auto;html=1;" edge="1" parent="1" source="HhCP0gk5ZvKczgAGPvd4-14" target="HhCP0gk5ZvKczgAGPvd4-5">
          <mxGeometry relative="1" as="geometry" />
        </mxCell>
        <mxCell id="HhCP0gk5ZvKczgAGPvd4-14" value="Get1D()" style="whiteSpace=wrap;html=1;" parent="1" vertex="1">
          <mxGeometry x="230" y="320" width="80" height="30" as="geometry" />
        </mxCell>
        <mxCell id="IsoqKuqiPtyr5cZhoryX-3" value="" style="edgeStyle=orthogonalEdgeStyle;rounded=0;orthogonalLoop=1;jettySize=auto;html=1;" edge="1" parent="1" source="HhCP0gk5ZvKczgAGPvd4-15" target="HhCP0gk5ZvKczgAGPvd4-14">
          <mxGeometry relative="1" as="geometry" />
        </mxCell>
        <mxCell id="HhCP0gk5ZvKczgAGPvd4-15" value="Get1D()" style="whiteSpace=wrap;html=1;" parent="1" vertex="1">
          <mxGeometry x="130" y="320" width="80" height="30" as="geometry" />
        </mxCell>
        <mxCell id="IsoqKuqiPtyr5cZhoryX-2" value="" style="edgeStyle=orthogonalEdgeStyle;rounded=0;orthogonalLoop=1;jettySize=auto;html=1;" edge="1" parent="1" source="HhCP0gk5ZvKczgAGPvd4-16" target="HhCP0gk5ZvKczgAGPvd4-15">
          <mxGeometry relative="1" as="geometry" />
        </mxCell>
        <mxCell id="HhCP0gk5ZvKczgAGPvd4-16" value="Get1D()" style="whiteSpace=wrap;html=1;" parent="1" vertex="1">
          <mxGeometry x="30" y="320" width="80" height="30" as="geometry" />
        </mxCell>
        <mxCell id="HhCP0gk5ZvKczgAGPvd4-31" style="edgeStyle=orthogonalEdgeStyle;rounded=0;orthogonalLoop=1;jettySize=auto;html=1;entryX=0.5;entryY=1;entryDx=0;entryDy=0;" parent="1" source="HhCP0gk5ZvKczgAGPvd4-27" target="HhCP0gk5ZvKczgAGPvd4-5" edge="1">
          <mxGeometry relative="1" as="geometry" />
        </mxCell>
        <mxCell id="HhCP0gk5ZvKczgAGPvd4-27" value="randDirection()" style="whiteSpace=wrap;html=1;fontSize=11;" parent="1" vertex="1">
          <mxGeometry x="360" y="405" width="80" height="30" as="geometry" />
        </mxCell>
        <mxCell id="HhCP0gk5ZvKczgAGPvd4-32" style="edgeStyle=orthogonalEdgeStyle;rounded=0;orthogonalLoop=1;jettySize=auto;html=1;entryX=0.5;entryY=1;entryDx=0;entryDy=0;" parent="1" source="HhCP0gk5ZvKczgAGPvd4-28" target="HhCP0gk5ZvKczgAGPvd4-7" edge="1">
          <mxGeometry relative="1" as="geometry" />
        </mxCell>
        <mxCell id="HhCP0gk5ZvKczgAGPvd4-28" value="randDirection()" style="whiteSpace=wrap;html=1;fontSize=11;" parent="1" vertex="1">
          <mxGeometry x="460" y="405" width="80" height="30" as="geometry" />
        </mxCell>
        <mxCell id="HhCP0gk5ZvKczgAGPvd4-33" style="edgeStyle=orthogonalEdgeStyle;rounded=0;orthogonalLoop=1;jettySize=auto;html=1;entryX=0.5;entryY=1;entryDx=0;entryDy=0;" parent="1" source="HhCP0gk5ZvKczgAGPvd4-29" target="HhCP0gk5ZvKczgAGPvd4-8" edge="1">
          <mxGeometry relative="1" as="geometry" />
        </mxCell>
        <mxCell id="HhCP0gk5ZvKczgAGPvd4-29" value="randDirection()" style="whiteSpace=wrap;html=1;fontSize=11;" parent="1" vertex="1">
          <mxGeometry x="560" y="405" width="80" height="30" as="geometry" />
        </mxCell>
        <mxCell id="IsoqKuqiPtyr5cZhoryX-9" value="" style="edgeStyle=orthogonalEdgeStyle;rounded=0;orthogonalLoop=1;jettySize=auto;html=1;" edge="1" parent="1" source="IsoqKuqiPtyr5cZhoryX-8" target="HhCP0gk5ZvKczgAGPvd4-5">
          <mxGeometry relative="1" as="geometry" />
        </mxCell>
        <mxCell id="IsoqKuqiPtyr5cZhoryX-8" value="randStep()" style="whiteSpace=wrap;html=1;fontSize=11;" vertex="1" parent="1">
          <mxGeometry x="360" y="230" width="80" height="30" as="geometry" />
        </mxCell>
        <mxCell id="IsoqKuqiPtyr5cZhoryX-13" value="" style="edgeStyle=orthogonalEdgeStyle;rounded=0;orthogonalLoop=1;jettySize=auto;html=1;" edge="1" parent="1" source="IsoqKuqiPtyr5cZhoryX-10" target="HhCP0gk5ZvKczgAGPvd4-7">
          <mxGeometry relative="1" as="geometry" />
        </mxCell>
        <mxCell id="IsoqKuqiPtyr5cZhoryX-10" value="randStep()" style="whiteSpace=wrap;html=1;fontSize=11;" vertex="1" parent="1">
          <mxGeometry x="460" y="230" width="80" height="30" as="geometry" />
        </mxCell>
        <mxCell id="IsoqKuqiPtyr5cZhoryX-12" value="" style="edgeStyle=orthogonalEdgeStyle;rounded=0;orthogonalLoop=1;jettySize=auto;html=1;" edge="1" parent="1" source="IsoqKuqiPtyr5cZhoryX-11" target="HhCP0gk5ZvKczgAGPvd4-8">
          <mxGeometry relative="1" as="geometry" />
        </mxCell>
        <mxCell id="IsoqKuqiPtyr5cZhoryX-11" value="randStep()" style="whiteSpace=wrap;html=1;fontSize=11;" vertex="1" parent="1">
          <mxGeometry x="560" y="230" width="80" height="30" as="geometry" />
        </mxCell>
        <mxCell id="IsoqKuqiPtyr5cZhoryX-17" value="" style="edgeStyle=orthogonalEdgeStyle;rounded=0;orthogonalLoop=1;jettySize=auto;html=1;" edge="1" parent="1" source="IsoqKuqiPtyr5cZhoryX-14" target="HhCP0gk5ZvKczgAGPvd4-14">
          <mxGeometry relative="1" as="geometry" />
        </mxCell>
        <mxCell id="IsoqKuqiPtyr5cZhoryX-14" value="randStep()" style="whiteSpace=wrap;html=1;fontSize=11;" vertex="1" parent="1">
          <mxGeometry x="230" y="230" width="80" height="30" as="geometry" />
        </mxCell>
        <mxCell id="IsoqKuqiPtyr5cZhoryX-18" value="" style="edgeStyle=orthogonalEdgeStyle;rounded=0;orthogonalLoop=1;jettySize=auto;html=1;" edge="1" parent="1" source="IsoqKuqiPtyr5cZhoryX-15" target="HhCP0gk5ZvKczgAGPvd4-15">
          <mxGeometry relative="1" as="geometry" />
        </mxCell>
        <mxCell id="IsoqKuqiPtyr5cZhoryX-15" value="randStep()" style="whiteSpace=wrap;html=1;fontSize=11;" vertex="1" parent="1">
          <mxGeometry x="130" y="230" width="80" height="30" as="geometry" />
        </mxCell>
        <mxCell id="IsoqKuqiPtyr5cZhoryX-19" value="" style="edgeStyle=orthogonalEdgeStyle;rounded=0;orthogonalLoop=1;jettySize=auto;html=1;" edge="1" parent="1" source="IsoqKuqiPtyr5cZhoryX-16" target="HhCP0gk5ZvKczgAGPvd4-16">
          <mxGeometry relative="1" as="geometry" />
        </mxCell>
        <mxCell id="IsoqKuqiPtyr5cZhoryX-16" value="randStep()" style="whiteSpace=wrap;html=1;fontSize=11;" vertex="1" parent="1">
          <mxGeometry x="30" y="230" width="80" height="30" as="geometry" />
        </mxCell>
      </root>
    </mxGraphModel>
  </diagram>
</mxfile>
